# xmcd
#
# Track frame offsets: 
#        150
#        24067
#        48155
#        73567
#        98866
#        120930
#        147224
#        173028
#        205242
#        227682
#        249097
#        277446
#
# Disc length: 4026 seconds
#
# Revision: 0
# Processed by: cddbd v1.5.2PL0 Copyright (c) Steve Scherf et al.
# Submitted via: ExactAudioCopy v1.3
#
DISCID=9a0fb80c
DTITLE=Jack De Keyzer - The Corktown Sessions Live
DYEAR=2009
DGENRE=Electric Blues
TTITLE0=Let's Have A Natural Ball
TTITLE1=Blues Thing
TTITLE2=When You've Got A Good Friend
TTITLE3=King Of The Blues
TTITLE4=Signed Sealed Delivered
TTITLE5=I Want To Love You
TTITLE6=The Way That I Love You
TTITLE7=Engine Trouble
TTITLE8=Ride With Me
TTITLE9=Hold On I'm Coming
TTITLE10=Soul Lover
TTITLE11=Rock This House
EXTD=
EXTT0=
EXTT1=
EXTT2=
EXTT3=
EXTT4=
EXTT5=
EXTT6=
EXTT7=
EXTT8=
EXTT9=
EXTT10=
EXTT11=
PLAYORDER=
